<svg xmlns="http://www.w3.org/2000/svg" xmlns:xlink="http://www.w3.org/1999/xlink" version="1.1" x="0px" y="0px" viewBox="0 0 100 125" style="enable-background:new 0 0 100 100;" xml:space="preserve"><style type="text/css">
	.st0{fill:none;stroke:#000000;stroke-width:3;stroke-linecap:round;stroke-linejoin:round;stroke-miterlimit:10;}
	.st1{stroke:#000000;stroke-linecap:round;stroke-linejoin:round;stroke-miterlimit:10;}
</style><g><path class="st0" d="M14.9,39.3c2.8-5.5,8.3-10,15.2-12.7"/><path class="st0" d="M40.2,24.1c1.5-0.2,3.1-0.3,4.7-0.3c17.8,0,32.2,10.8,32.2,24.2c0,7.8-5,14.8-12.7,19.3   c-3.9,2.2-8.4,3.8-13.4,4.5c-2,0.3-4,0.4-6.1,0.4c-2.3,0-4.5-0.2-6.6-0.5c-5-0.8-9.5-2.4-13.4-4.7c-4.5-2.6-8-6.2-10-10.2"/><polyline class="st0" points="38.3,71.7 38.3,81.5 25,81.5 25,67  "/><polyline class="st0" points="64.5,67.3 64.5,81.5 51.1,81.5 51.1,71.8  "/><path class="st0" d="M14.9,56.8c-0.4,0.1-0.8,0.1-1.2,0.1h-2c-3.6,0-6.6-3-6.6-6.6v-4.5c0-3.6,3-6.6,6.6-6.6h2   c0.4,0,0.8,0,1.2,0.1"/><circle class="st1" cx="26.4" cy="41.6" r="2.5"/><path class="st0" d="M77.2,48.4c1.6-0.1,3.2-0.5,4.5-1.5s2-2.7,1.7-4.2c-0.1-0.4-0.3-0.9-0.7-1.1   c-0.9-0.5-1.8,0.5-2.3,1.4c-0.5,1-0.8,2.2-0.4,3.2c0.6,1.5,2.4,2.1,4,2.1c2.2,0,4.6-0.9,5.8-2.8c0.4-0.6,0.6-1.2,0.5-1.9   c-0.2-1.3-1.9-2-3-1.2c-0.7,0.6-1,1.6-1.1,2.5c-0.3,1.4-0.5,2.8-0.5,4.2c0,0.2,0,0.5,0.1,0.7c0.2,0.3,0.4,0.4,0.7,0.5   c1.7,0.6,3.5,0,4.9-1.1c1.4-1.1,2.4-2.5,3.4-4"/><path class="st0" d="M32.9,31.1c-2.3-5.5-7.5-9.7-13.4-10.9c2.6-1.7,6-1.8,9.2-1.8c1.9,0,3.9,0,5.7,0.6   c4.5,1.5,7.1,6.2,8.1,10.9"/></g><g><path d="M48.6,39.1l-0.2,1.6c-0.2,1.8-0.4,2.9-0.4,3.3c0.4,0.3,1.2,0.8,2.4,1.4c0.7,0.4,1.1,0.8,1.4,1.3   c0.3,0.5,0.4,1.2,0.4,2c0,1.9-1.7,3.4-5.1,4.4l-0.4,5.1c0,0.2,0.1,0.7,0.2,1.4s0.2,1.1,0.2,1.2c0,0.3-0.2,0.6-0.6,0.8   S45.7,62,45.3,62c-1.4,0-2.1-0.8-2.1-2.3l0.3-5.1c-0.3,0.1-0.6,0.1-0.8,0.1s-0.6,0.1-0.9,0.1c-1.7,0.5-3,0.8-3.7,0.8   c-0.6,0-1.2-0.1-1.7-0.4s-0.8-0.6-0.8-1c0-0.9,0.4-1.6,1.1-2s2.2-0.7,4.3-0.9c1.9-0.2,2.8-0.4,2.8-0.8c0.4-2.8,0.5-4.5,0.5-5.2   c-0.7-0.3-1.3-0.6-1.8-0.8c-1.3-0.5-2.1-0.8-2.5-1.2s-0.8-0.8-1.2-1.3s-0.6-1.2-0.6-1.9s0.7-1.5,2.1-2.3s3.1-1.4,4.9-1.6   c0-0.2,0-0.5,0-0.8v-3.7c0-0.5,0.3-0.9,1-1.2c0.4-0.2,0.8-0.4,1.4-0.4c1.2,0,1.8,0.8,1.8,2.4c0,0.3-0.1,1.2-0.4,2.7   c-0.1,0.3-0.1,0.5-0.1,0.5h0.7c0.6,0,1.1-0.1,1.5-0.2c0.3-0.1,0.7-0.1,1.1-0.1c1.2,0,1.8,0.6,1.8,1.8c0,0.8-0.3,1.3-0.8,1.5   S51.1,39.1,48.6,39.1z M44.9,39.7c-1.3,0.3-2.1,0.7-2.5,1.1c0.1,0.1,0.5,0.4,1.1,0.7s1.1,0.6,1.1,0.6L44.9,39.7z M47.5,49.6   c0.1-0.1,0.4-0.3,0.8-0.5c0.3-0.2,0.5-0.3,0.5-0.5c0,0,0-0.1,0-0.2c0-0.1-0.1-0.1-0.1-0.2c0-0.1-0.1-0.2-0.2-0.2   c-0.1-0.1-0.1-0.1-0.2-0.2s-0.1-0.2-0.2-0.2c-0.1-0.1-0.1-0.1-0.2-0.2l-0.1-0.1l0,0C47.6,48.3,47.5,49.1,47.5,49.6z"/></g><text x="0" y="115" fill="#000000" font-size="5px" font-weight="bold" font-family="'Helvetica Neue', Helvetica, Arial-Unicode, Arial, Sans-serif">Created by Abdelkader Kharmchen</text><text x="0" y="120" fill="#000000" font-size="5px" font-weight="bold" font-family="'Helvetica Neue', Helvetica, Arial-Unicode, Arial, Sans-serif">from the Noun Project</text></svg>